# xmcd
#
# Track frame offsets:
#	150
#	15365
#	30062
#	50045
#	65637
#
# Disc length: 1207 seconds
#
# Revision: 1
# Processed by: cddbd v1.4PL0 Copyright (c) Steve Scherf et al.
# Submitted via: audiograbber 1.80
#
DISCID=3304b505
DTITLE=Cook's Garage - The blues is always near
DYEAR=1900
DGENRE=
TTITLE0=Bad Dreams
TTITLE1=The Blues Is Always Near
TTITLE2=Blues in Vain
TTITLE3=Ex-Man's Shuffle
TTITLE4=In The Fields
EXTD=
EXTT0=
EXTT1=
EXTT2=
EXTT3=
EXTT4=
PLAYORDER=
